<?xml version="1.0" standalone="no"?>
<!DOCTYPE svg PUBLIC "-//W3C//DTD SVG 20010904//EN"
 "http://www.w3.org/TR/2001/REC-SVG-20010904/DTD/svg10.dtd">
<svg version="1.0" xmlns="http://www.w3.org/2000/svg"
 width="700.000000pt" height="700.000000pt" viewBox="0 0 700.000000 700.000000"
 preserveAspectRatio="xMidYMid meet">
<metadata>
Created by potrace 1.11, written by Peter Selinger 2001-2013
</metadata>
<g transform="translate(0.000000,700.000000) scale(0.100000,-0.100000)"
fill="#000000" stroke="none">
<path d="M3278 6995 c-2 -1 -41 -5 -88 -9 -87 -7 -105 -9 -225 -27 -116 -18
-123 -19 -192 -35 -184 -42 -248 -59 -369 -99 -389 -130 -727 -310 -1047 -559
-553 -429 -958 -1001 -1181 -1668 -31 -94 -79 -267 -91 -329 -3 -13 -11 -58
-20 -99 -29 -147 -36 -200 -52 -370 -15 -165 -8 -592 12 -711 2 -13 6 -46 9
-74 9 -78 23 -156 51 -285 31 -142 109 -393 175 -555 49 -123 173 -370 235
-468 30 -49 55 -90 55 -93 0 -3 4 -10 10 -17 5 -7 46 -64 91 -126 72 -103 179
-239 234 -297 243 -261 429 -421 682 -590 77 -52 145 -94 149 -94 4 0 15 -6
23 -14 27 -23 260 -140 392 -196 281 -120 597 -208 874 -245 22 -2 56 -7 75
-10 186 -26 698 -27 838 0 16 3 104 15 147 20 324 41 869 235 1167 415 37 22
70 40 73 40 3 0 11 5 18 10 7 6 62 43 122 83 253 168 492 376 678 592 33 39
63 72 67 75 4 3 44 55 90 115 152 200 284 417 388 638 23 49 42 91 42 93 0 2
11 27 24 56 57 127 151 421 182 573 17 81 54 301 59 350 4 33 9 71 11 85 9 47
11 525 4 605 -13 130 -21 202 -25 227 -3 13 -8 43 -11 68 -9 67 -70 335 -94
412 -11 37 -21 70 -21 73 0 11 -74 208 -116 310 -278 664 -794 1260 -1415
1632 -125 75 -310 171 -398 208 -36 14 -83 34 -105 44 -107 49 -396 137 -563
172 -54 11 -106 22 -117 25 -11 2 -38 6 -60 9 -22 3 -51 7 -65 10 -13 2 -52 7
-86 11 -33 3 -74 8 -90 10 -32 5 -540 14 -546 9z m74 -1321 c57 -18 122 -85
137 -140 8 -27 11 -403 11 -1191 l0 -1151 50 -31 c28 -17 53 -31 55 -31 3 0
22 -11 43 -23 20 -13 57 -35 82 -49 25 -14 158 -89 295 -168 138 -79 266 -152
285 -163 255 -144 602 -345 628 -364 58 -44 84 -94 85 -165 1 -75 -24 -131
-79 -176 -78 -65 -169 -66 -275 -4 -36 21 -71 42 -79 46 -26 13 -599 340 -660
377 -28 17 -125 72 -200 114 -41 23 -154 87 -250 142 -96 55 -191 110 -210
120 -137 78 -153 90 -183 148 l-22 40 -1 1250 c-1 1397 -7 1297 72 1371 62 59
131 75 216 48z"/>
</g>
</svg>
